<mxfile host="app.diagrams.net" modified="2023-11-09T02:41:17.926Z" agent="Mozilla/5.0 (Macintosh; Intel Mac OS X 10_15_7) AppleWebKit/605.1.15 (KHTML, like Gecko) Version/13.1.3 Safari/605.1.15" etag="-qZXEZgEaCi763XgAdqh" version="22.1.0" type="device">
  <diagram id="C5RBs43oDa-KdzZeNtuy" name="Page-1">
    <mxGraphModel dx="2481" dy="1990" grid="1" gridSize="10" guides="1" tooltips="1" connect="1" arrows="1" fold="1" page="1" pageScale="1" pageWidth="827" pageHeight="1169" math="0" shadow="0">
      <root>
        <mxCell id="WIyWlLk6GJQsqaUBKTNV-0" />
        <mxCell id="WIyWlLk6GJQsqaUBKTNV-1" parent="WIyWlLk6GJQsqaUBKTNV-0" />
        <mxCell id="jLacbx9vkayHQxbNvUvI-65" style="edgeStyle=orthogonalEdgeStyle;rounded=0;orthogonalLoop=1;jettySize=auto;html=1;entryX=0.5;entryY=0;entryDx=0;entryDy=0;" edge="1" parent="WIyWlLk6GJQsqaUBKTNV-1" source="jLacbx9vkayHQxbNvUvI-1">
          <mxGeometry relative="1" as="geometry">
            <mxPoint x="480" y="510" as="targetPoint" />
          </mxGeometry>
        </mxCell>
        <mxCell id="jLacbx9vkayHQxbNvUvI-1" value="&lt;b&gt;&lt;font style=&quot;font-size: 18px;&quot;&gt;&amp;nbsp; NHẬP VÀ XUẤT&lt;br&gt;&amp;nbsp;TRONG C&amp;nbsp;&lt;/font&gt;&lt;/b&gt;" style="ellipse;shape=cloud;whiteSpace=wrap;html=1;" vertex="1" parent="WIyWlLk6GJQsqaUBKTNV-1">
          <mxGeometry x="294" y="210" width="246" height="190" as="geometry" />
        </mxCell>
        <mxCell id="jLacbx9vkayHQxbNvUvI-22" style="edgeStyle=orthogonalEdgeStyle;rounded=0;orthogonalLoop=1;jettySize=auto;html=1;entryX=0;entryY=0.5;entryDx=0;entryDy=0;exitX=0.875;exitY=0.5;exitDx=0;exitDy=0;exitPerimeter=0;" edge="1" parent="WIyWlLk6GJQsqaUBKTNV-1" source="jLacbx9vkayHQxbNvUvI-6" target="jLacbx9vkayHQxbNvUvI-21">
          <mxGeometry relative="1" as="geometry" />
        </mxCell>
        <mxCell id="jLacbx9vkayHQxbNvUvI-6" value="&lt;div style=&quot;caret-color: rgb(0, 0, 0); color: rgb(0, 0, 0); font-style: normal; font-variant-caps: normal; letter-spacing: normal; text-align: start; text-indent: 0px; text-transform: none; word-spacing: 0px; -webkit-text-stroke-width: 0px; text-decoration: none;&quot; title=&quot;Page 2&quot; class=&quot;page&quot;&gt;&lt;div style=&quot;background-color: rgb(255, 255, 255);&quot; class=&quot;section&quot;&gt;&lt;div class=&quot;layoutArea&quot;&gt;&lt;div class=&quot;column&quot;&gt;&lt;p&gt;&lt;span style=&quot;font-family: Montserrat; color: rgb(51, 51, 51);&quot;&gt;&lt;font style=&quot;font-size: 14px;&quot;&gt;Nhập xuất chuẩn&amp;nbsp;&lt;/font&gt;&lt;/span&gt;&lt;/p&gt;&lt;p&gt;&lt;span style=&quot;font-family: Montserrat; color: rgb(51, 51, 51);&quot;&gt;&lt;font size=&quot;3&quot;&gt;với &amp;lt;stdio.h&amp;gt;&lt;/font&gt;&lt;/span&gt;&lt;/p&gt;&lt;/div&gt;&lt;/div&gt;&lt;/div&gt;&lt;/div&gt;" style="ellipse;shape=cloud;whiteSpace=wrap;html=1;" vertex="1" parent="WIyWlLk6GJQsqaUBKTNV-1">
          <mxGeometry x="540" y="60" width="200" height="150" as="geometry" />
        </mxCell>
        <mxCell id="jLacbx9vkayHQxbNvUvI-18" value="" style="endArrow=classic;html=1;rounded=0;entryX=0.13;entryY=0.77;entryDx=0;entryDy=0;entryPerimeter=0;exitX=0.821;exitY=0.184;exitDx=0;exitDy=0;exitPerimeter=0;" edge="1" parent="WIyWlLk6GJQsqaUBKTNV-1" source="jLacbx9vkayHQxbNvUvI-1" target="jLacbx9vkayHQxbNvUvI-6">
          <mxGeometry width="50" height="50" relative="1" as="geometry">
            <mxPoint x="500" y="240" as="sourcePoint" />
            <mxPoint x="420" y="320" as="targetPoint" />
            <Array as="points">
              <mxPoint x="540" y="220" />
            </Array>
          </mxGeometry>
        </mxCell>
        <mxCell id="jLacbx9vkayHQxbNvUvI-19" value="&lt;div style=&quot;caret-color: rgb(0, 0, 0); color: rgb(0, 0, 0); font-style: normal; font-variant-caps: normal; letter-spacing: normal; text-align: start; text-indent: 0px; text-transform: none; word-spacing: 0px; -webkit-text-stroke-width: 0px; text-decoration: none;&quot; title=&quot;Page 4&quot; class=&quot;page&quot;&gt;&lt;div style=&quot;background-color: rgb(255, 255, 255);&quot; class=&quot;section&quot;&gt;&lt;div class=&quot;layoutArea&quot;&gt;&lt;div class=&quot;column&quot;&gt;&lt;ul style=&quot;list-style-type: disc;&quot;&gt;&lt;li style=&quot;font-family: ArialMT; color: rgb(192, 0, 0);&quot;&gt;&lt;p&gt;&lt;span style=&quot;font-family: Montserrat;&quot;&gt;&lt;font style=&quot;font-size: 11px;&quot;&gt;&lt;b&gt;Thư viện chuẩn trong C cung cấp các hàm xử lý cho việc nhập và xuất&lt;/b&gt;&lt;/font&gt;&lt;/span&gt;&lt;/p&gt;&lt;/li&gt;&lt;/ul&gt;&lt;/div&gt;&lt;/div&gt;&lt;/div&gt;&lt;/div&gt;" style="rounded=0;whiteSpace=wrap;html=1;" vertex="1" parent="WIyWlLk6GJQsqaUBKTNV-1">
          <mxGeometry x="740" y="20" width="220" height="50" as="geometry" />
        </mxCell>
        <mxCell id="jLacbx9vkayHQxbNvUvI-20" value="" style="endArrow=classic;html=1;rounded=0;entryX=0;entryY=0.5;entryDx=0;entryDy=0;exitX=0.76;exitY=0.147;exitDx=0;exitDy=0;exitPerimeter=0;" edge="1" parent="WIyWlLk6GJQsqaUBKTNV-1" source="jLacbx9vkayHQxbNvUvI-6" target="jLacbx9vkayHQxbNvUvI-19">
          <mxGeometry width="50" height="50" relative="1" as="geometry">
            <mxPoint x="480" y="350" as="sourcePoint" />
            <mxPoint x="530" y="300" as="targetPoint" />
          </mxGeometry>
        </mxCell>
        <mxCell id="jLacbx9vkayHQxbNvUvI-21" value="&lt;div style=&quot;caret-color: rgb(0, 0, 0); color: rgb(0, 0, 0); font-style: normal; font-variant-caps: normal; font-weight: normal; letter-spacing: normal; text-align: start; text-indent: 0px; text-transform: none; word-spacing: 0px; -webkit-text-stroke-width: 0px; text-decoration: none;&quot; title=&quot;Page 4&quot; class=&quot;page&quot;&gt;&lt;div style=&quot;background-color: rgb(255, 255, 255);&quot; class=&quot;section&quot;&gt;&lt;div class=&quot;layoutArea&quot;&gt;&lt;div class=&quot;column&quot;&gt;&lt;ul style=&quot;list-style-type: disc;&quot;&gt;&lt;li style=&quot;font-family: ArialMT; color: rgb(192, 0, 0);&quot;&gt;&lt;p&gt;&lt;font style=&quot;font-size: 11px;&quot;&gt;&lt;span style=&quot;font-family: Montserrat;&quot;&gt;&lt;font&gt;Thư viện chuẩn có các hàm I/O dùng để quản lý việc nhập, xuất, các thao tác&lt;/font&gt;&lt;/span&gt;&lt;span style=&quot;font-family: Montserrat;&quot;&gt;trênký tự và chuỗi&lt;/span&gt;&lt;/font&gt;&lt;/p&gt;&lt;/li&gt;&lt;/ul&gt;&lt;/div&gt;&lt;/div&gt;&lt;/div&gt;&lt;/div&gt;" style="rounded=0;whiteSpace=wrap;html=1;" vertex="1" parent="WIyWlLk6GJQsqaUBKTNV-1">
          <mxGeometry x="760" y="110" width="210" height="50" as="geometry" />
        </mxCell>
        <mxCell id="jLacbx9vkayHQxbNvUvI-23" value="&lt;div style=&quot;caret-color: rgb(0, 0, 0); color: rgb(0, 0, 0); font-style: normal; font-variant-caps: normal; font-weight: normal; letter-spacing: normal; text-align: start; text-indent: 0px; text-transform: none; word-spacing: 0px; -webkit-text-stroke-width: 0px; text-decoration: none;&quot; title=&quot;Page 4&quot; class=&quot;page&quot;&gt;&lt;div style=&quot;background-color: rgb(255, 255, 255);&quot; class=&quot;section&quot;&gt;&lt;div class=&quot;layoutArea&quot;&gt;&lt;div class=&quot;column&quot;&gt;&lt;ul style=&quot;list-style-type: disc;&quot;&gt;&lt;li style=&quot;font-family: ArialMT; color: rgb(192, 0, 0);&quot;&gt;&lt;p&gt;&lt;span style=&quot;font-family: Montserrat;&quot;&gt;&lt;font style=&quot;font-size: 12px;&quot;&gt;Thiết bị nhập chuẩn là bàn phím&lt;/font&gt;&lt;/span&gt;&lt;/p&gt;&lt;/li&gt;&lt;li style=&quot;font-family: ArialMT; color: rgb(192, 0, 0);&quot;&gt;&lt;p&gt;&lt;span style=&quot;font-family: Montserrat;&quot;&gt;&lt;font style=&quot;font-size: 11px;&quot;&gt;Thiết bị xuất chuẩn là màn hình console&lt;/font&gt;&lt;/span&gt;&lt;/p&gt;&lt;/li&gt;&lt;/ul&gt;&lt;/div&gt;&lt;/div&gt;&lt;/div&gt;&lt;/div&gt;" style="rounded=0;whiteSpace=wrap;html=1;" vertex="1" parent="WIyWlLk6GJQsqaUBKTNV-1">
          <mxGeometry x="760" y="200" width="230" height="60" as="geometry" />
        </mxCell>
        <mxCell id="jLacbx9vkayHQxbNvUvI-24" value="" style="endArrow=classic;html=1;rounded=0;exitX=0.785;exitY=0.873;exitDx=0;exitDy=0;exitPerimeter=0;entryX=0;entryY=0.5;entryDx=0;entryDy=0;" edge="1" parent="WIyWlLk6GJQsqaUBKTNV-1" source="jLacbx9vkayHQxbNvUvI-6" target="jLacbx9vkayHQxbNvUvI-23">
          <mxGeometry width="50" height="50" relative="1" as="geometry">
            <mxPoint x="740" y="350" as="sourcePoint" />
            <mxPoint x="790" y="300" as="targetPoint" />
          </mxGeometry>
        </mxCell>
        <mxCell id="jLacbx9vkayHQxbNvUvI-25" value="&lt;div style=&quot;caret-color: rgb(0, 0, 0); color: rgb(0, 0, 0); font-style: normal; font-variant-caps: normal; font-weight: normal; letter-spacing: normal; text-align: start; text-indent: 0px; text-transform: none; word-spacing: 0px; -webkit-text-stroke-width: 0px; text-decoration: none;&quot; title=&quot;Page 4&quot; class=&quot;page&quot;&gt;&lt;div style=&quot;background-color: rgb(255, 255, 255);&quot; class=&quot;section&quot;&gt;&lt;div class=&quot;layoutArea&quot;&gt;&lt;div class=&quot;column&quot;&gt;&lt;ul style=&quot;list-style-type: disc;&quot;&gt;&lt;li style=&quot;font-family: ArialMT; color: rgb(192, 0, 0);&quot;&gt;&lt;p&gt;&lt;span style=&quot;font-family: Montserrat;&quot;&gt;&lt;font style=&quot;font-size: 12px;&quot;&gt;Nhập/xuất có thể xử lý qua các tập tin thay vì các thiết bị chuẩn&lt;/font&gt;&lt;/span&gt;&lt;/p&gt;&lt;/li&gt;&lt;/ul&gt;&lt;/div&gt;&lt;/div&gt;&lt;/div&gt;&lt;/div&gt;" style="rounded=0;whiteSpace=wrap;html=1;" vertex="1" parent="WIyWlLk6GJQsqaUBKTNV-1">
          <mxGeometry x="730" y="-80" width="230" height="60" as="geometry" />
        </mxCell>
        <mxCell id="jLacbx9vkayHQxbNvUvI-26" value="" style="endArrow=classic;html=1;rounded=0;exitX=0.46;exitY=0.107;exitDx=0;exitDy=0;exitPerimeter=0;entryX=-0.009;entryY=0.633;entryDx=0;entryDy=0;entryPerimeter=0;" edge="1" parent="WIyWlLk6GJQsqaUBKTNV-1" source="jLacbx9vkayHQxbNvUvI-6" target="jLacbx9vkayHQxbNvUvI-25">
          <mxGeometry width="50" height="50" relative="1" as="geometry">
            <mxPoint x="740" y="160" as="sourcePoint" />
            <mxPoint x="790" y="110" as="targetPoint" />
            <Array as="points">
              <mxPoint x="670" />
            </Array>
          </mxGeometry>
        </mxCell>
        <mxCell id="jLacbx9vkayHQxbNvUvI-27" value="&lt;div style=&quot;caret-color: rgb(0, 0, 0); color: rgb(0, 0, 0); font-style: normal; font-variant-caps: normal; font-weight: normal; letter-spacing: normal; text-align: start; text-indent: 0px; text-transform: none; word-spacing: 0px; -webkit-text-stroke-width: 0px; text-decoration: none;&quot; title=&quot;Page 4&quot; class=&quot;page&quot;&gt;&lt;div style=&quot;background-color: rgb(255, 255, 255);&quot; class=&quot;section&quot;&gt;&lt;div class=&quot;layoutArea&quot;&gt;&lt;div class=&quot;column&quot;&gt;&lt;ul style=&quot;list-style-type: disc;&quot;&gt;&lt;li style=&quot;font-family: ArialMT; color: rgb(192, 0, 0);&quot;&gt;&lt;p&gt;&lt;span style=&quot;font-family: Montserrat;&quot;&gt;&lt;font style=&quot;font-size: 12px;&quot;&gt;Tập tin header &amp;lt;stdio.h&amp;gt;&lt;/font&gt;&lt;/span&gt;&lt;/p&gt;&lt;/li&gt;&lt;/ul&gt;&lt;/div&gt;&lt;/div&gt;&lt;/div&gt;&lt;/div&gt;" style="rounded=0;whiteSpace=wrap;html=1;" vertex="1" parent="WIyWlLk6GJQsqaUBKTNV-1">
          <mxGeometry x="710" y="290" width="180" height="60" as="geometry" />
        </mxCell>
        <mxCell id="jLacbx9vkayHQxbNvUvI-28" value="" style="endArrow=classic;html=1;rounded=0;exitX=0.465;exitY=0.967;exitDx=0;exitDy=0;exitPerimeter=0;entryX=0.089;entryY=0;entryDx=0;entryDy=0;entryPerimeter=0;" edge="1" parent="WIyWlLk6GJQsqaUBKTNV-1" source="jLacbx9vkayHQxbNvUvI-6" target="jLacbx9vkayHQxbNvUvI-27">
          <mxGeometry width="50" height="50" relative="1" as="geometry">
            <mxPoint x="740" y="310" as="sourcePoint" />
            <mxPoint x="790" y="260" as="targetPoint" />
            <Array as="points">
              <mxPoint x="660" y="260" />
            </Array>
          </mxGeometry>
        </mxCell>
        <mxCell id="jLacbx9vkayHQxbNvUvI-29" value="&lt;div style=&quot;caret-color: rgb(0, 0, 0); color: rgb(0, 0, 0); font-style: normal; font-variant-caps: normal; font-weight: normal; letter-spacing: normal; text-align: start; text-indent: 0px; text-transform: none; word-spacing: 0px; -webkit-text-stroke-width: 0px; text-decoration: none;&quot; title=&quot;Page 4&quot; class=&quot;page&quot;&gt;&lt;div style=&quot;background-color: rgb(255, 255, 255);&quot; class=&quot;section&quot;&gt;&lt;div class=&quot;layoutArea&quot;&gt;&lt;div class=&quot;column&quot;&gt;&lt;p&gt;&lt;span style=&quot;font-family: Montserrat;&quot;&gt;&lt;font style=&quot;font-size: 14px;&quot;&gt;Câu lệnh&lt;/font&gt;&lt;/span&gt;&lt;/p&gt;&lt;p&gt;&lt;span style=&quot;font-family: Montserrat;&quot;&gt;&lt;font size=&quot;3&quot;&gt;tiền xử lý&lt;/font&gt;&lt;br&gt;&lt;/span&gt;&lt;/p&gt;&lt;/div&gt;&lt;/div&gt;&lt;/div&gt;&lt;/div&gt;" style="ellipse;whiteSpace=wrap;html=1;" vertex="1" parent="WIyWlLk6GJQsqaUBKTNV-1">
          <mxGeometry x="1060" y="250" width="120" height="70" as="geometry" />
        </mxCell>
        <mxCell id="jLacbx9vkayHQxbNvUvI-32" value="" style="endArrow=classic;html=1;rounded=0;entryX=-0.008;entryY=0.375;entryDx=0;entryDy=0;entryPerimeter=0;exitX=1;exitY=0.5;exitDx=0;exitDy=0;" edge="1" parent="WIyWlLk6GJQsqaUBKTNV-1" source="jLacbx9vkayHQxbNvUvI-27" target="jLacbx9vkayHQxbNvUvI-29">
          <mxGeometry width="50" height="50" relative="1" as="geometry">
            <mxPoint x="740" y="350" as="sourcePoint" />
            <mxPoint x="790" y="300" as="targetPoint" />
            <Array as="points">
              <mxPoint x="940" y="320" />
            </Array>
          </mxGeometry>
        </mxCell>
        <mxCell id="jLacbx9vkayHQxbNvUvI-33" value="&lt;div style=&quot;text-align: start;&quot; title=&quot;Page 4&quot; class=&quot;page&quot;&gt;&lt;div style=&quot;background-color: rgb(255, 255, 255);&quot; class=&quot;section&quot;&gt;&lt;div class=&quot;layoutArea&quot;&gt;&lt;div class=&quot;column&quot;&gt;&lt;p&gt;&lt;font size=&quot;1&quot;&gt;&lt;b&gt;Là tập tin&lt;/b&gt;&lt;/font&gt;&lt;/p&gt;&lt;p&gt;&lt;font size=&quot;1&quot;&gt;&lt;b&gt;&amp;nbsp;header(header file)&lt;/b&gt;&lt;/font&gt;&lt;/p&gt;&lt;/div&gt;&lt;/div&gt;&lt;/div&gt;&lt;/div&gt;" style="ellipse;whiteSpace=wrap;html=1;" vertex="1" parent="WIyWlLk6GJQsqaUBKTNV-1">
          <mxGeometry x="1035" y="380" width="145" height="80" as="geometry" />
        </mxCell>
        <mxCell id="jLacbx9vkayHQxbNvUvI-34" value="" style="endArrow=classic;html=1;rounded=0;entryX=0.062;entryY=0.25;entryDx=0;entryDy=0;entryPerimeter=0;exitX=1;exitY=1;exitDx=0;exitDy=0;" edge="1" parent="WIyWlLk6GJQsqaUBKTNV-1" source="jLacbx9vkayHQxbNvUvI-27" target="jLacbx9vkayHQxbNvUvI-33">
          <mxGeometry width="50" height="50" relative="1" as="geometry">
            <mxPoint x="740" y="350" as="sourcePoint" />
            <mxPoint x="790" y="300" as="targetPoint" />
            <Array as="points">
              <mxPoint x="970" y="360" />
            </Array>
          </mxGeometry>
        </mxCell>
        <mxCell id="jLacbx9vkayHQxbNvUvI-35" value="&lt;div style=&quot;caret-color: rgb(0, 0, 0); color: rgb(0, 0, 0); font-style: normal; font-variant-caps: normal; letter-spacing: normal; text-align: start; text-indent: 0px; text-transform: none; word-spacing: 0px; -webkit-text-stroke-width: 0px; text-decoration: none;&quot; title=&quot;Page 4&quot; class=&quot;page&quot;&gt;&lt;div style=&quot;background-color: rgb(255, 255, 255);&quot; class=&quot;section&quot;&gt;&lt;div class=&quot;layoutArea&quot;&gt;&lt;div class=&quot;column&quot;&gt;&lt;p&gt;&lt;span style=&quot;font-family: Montserrat;&quot;&gt;&lt;font style=&quot;font-size: 12px;&quot;&gt;&lt;b&gt;Chứa các macro sử dụng cho nhiều hàm nhập/xuất trong C&lt;/b&gt;&lt;/font&gt;&lt;br&gt;&lt;/span&gt;&lt;/p&gt;&lt;/div&gt;&lt;/div&gt;&lt;/div&gt;&lt;/div&gt;" style="ellipse;whiteSpace=wrap;html=1;" vertex="1" parent="WIyWlLk6GJQsqaUBKTNV-1">
          <mxGeometry x="930" y="495" width="150" height="90" as="geometry" />
        </mxCell>
        <mxCell id="jLacbx9vkayHQxbNvUvI-36" value="" style="endArrow=classic;html=1;rounded=0;entryX=0.28;entryY=0.044;entryDx=0;entryDy=0;entryPerimeter=0;exitX=0.75;exitY=1;exitDx=0;exitDy=0;" edge="1" parent="WIyWlLk6GJQsqaUBKTNV-1" source="jLacbx9vkayHQxbNvUvI-27" target="jLacbx9vkayHQxbNvUvI-35">
          <mxGeometry width="50" height="50" relative="1" as="geometry">
            <mxPoint x="740" y="490" as="sourcePoint" />
            <mxPoint x="790" y="440" as="targetPoint" />
            <Array as="points">
              <mxPoint x="920" y="410" />
            </Array>
          </mxGeometry>
        </mxCell>
        <mxCell id="jLacbx9vkayHQxbNvUvI-37" value="&lt;div style=&quot;caret-color: rgb(0, 0, 0); color: rgb(0, 0, 0); font-style: normal; font-variant-caps: normal; letter-spacing: normal; text-align: start; text-indent: 0px; text-transform: none; word-spacing: 0px; -webkit-text-stroke-width: 0px; text-decoration: none;&quot; title=&quot;Page 4&quot; class=&quot;page&quot;&gt;&lt;div style=&quot;background-color: rgb(255, 255, 255);&quot; class=&quot;section&quot;&gt;&lt;div class=&quot;layoutArea&quot;&gt;&lt;div class=&quot;column&quot;&gt;&lt;p&gt;&lt;font style=&quot;font-size: 9px;&quot;&gt;&lt;b&gt;&lt;span style=&quot;font-family: CourierNew; color: rgb(192, 0, 0);&quot;&gt;o&lt;span class=&quot;Apple-converted-space&quot;&gt;&amp;nbsp;&lt;/span&gt;&lt;/span&gt;&lt;span style=&quot;font-family: Montserrat;&quot;&gt;Các macro trong stdio.h giúp các hàm&lt;span class=&quot;Apple-converted-space&quot;&gt;&amp;nbsp;&lt;/span&gt;&lt;/span&gt;&lt;span style=&quot;font-family: Montserrat;&quot;&gt;printf()&lt;/span&gt;&lt;span style=&quot;font-family: Montserrat;&quot;&gt;,&lt;span class=&quot;Apple-converted-space&quot;&gt;&amp;nbsp;&lt;/span&gt;&lt;/span&gt;&lt;span style=&quot;font-family: Montserrat;&quot;&gt;scanf()&lt;/span&gt;&lt;span style=&quot;font-family: Montserrat;&quot;&gt;,&lt;span class=&quot;Apple-converted-space&quot;&gt;&amp;nbsp;&lt;/span&gt;&lt;/span&gt;&lt;span style=&quot;font-family: Montserrat;&quot;&gt;putchar()&lt;/span&gt;&lt;span style=&quot;font-family: Montserrat;&quot;&gt;,&lt;span class=&quot;Apple-converted-space&quot;&gt;&amp;nbsp;&lt;/span&gt;&lt;/span&gt;&lt;span style=&quot;font-family: Montserrat;&quot;&gt;getchar()&lt;span class=&quot;Apple-converted-space&quot;&gt;&amp;nbsp;&lt;/span&gt;&lt;/span&gt;&lt;span style=&quot;font-family: Montserrat;&quot;&gt;thực thi&lt;/span&gt;&lt;/b&gt;&lt;/font&gt;&lt;/p&gt;&lt;/div&gt;&lt;/div&gt;&lt;/div&gt;&lt;/div&gt;" style="ellipse;whiteSpace=wrap;html=1;" vertex="1" parent="WIyWlLk6GJQsqaUBKTNV-1">
          <mxGeometry x="780" y="450" width="150" height="100" as="geometry" />
        </mxCell>
        <mxCell id="jLacbx9vkayHQxbNvUvI-38" value="" style="endArrow=classic;html=1;rounded=0;entryX=0.453;entryY=0.02;entryDx=0;entryDy=0;entryPerimeter=0;" edge="1" parent="WIyWlLk6GJQsqaUBKTNV-1" target="jLacbx9vkayHQxbNvUvI-37">
          <mxGeometry width="50" height="50" relative="1" as="geometry">
            <mxPoint x="790" y="350" as="sourcePoint" />
            <mxPoint x="790" y="430" as="targetPoint" />
          </mxGeometry>
        </mxCell>
        <mxCell id="jLacbx9vkayHQxbNvUvI-40" value="&lt;div style=&quot;caret-color: rgb(0, 0, 0); color: rgb(0, 0, 0); font-style: normal; font-variant-caps: normal; letter-spacing: normal; text-align: start; text-indent: 0px; text-transform: none; word-spacing: 0px; -webkit-text-stroke-width: 0px; text-decoration: none;&quot; title=&quot;Page 2&quot; class=&quot;page&quot;&gt;&lt;div style=&quot;background-color: rgb(255, 255, 255);&quot; class=&quot;section&quot;&gt;&lt;div class=&quot;layoutArea&quot;&gt;&lt;div class=&quot;column&quot;&gt;&lt;p&gt;&lt;span style=&quot;font-family: Montserrat; color: rgb(51, 51, 51);&quot;&gt;&lt;font style=&quot;font-size: 12px;&quot;&gt;&lt;b&gt;Nhập xuất&lt;/b&gt;&lt;/font&gt;&lt;/span&gt;&lt;/p&gt;&lt;p&gt;&lt;span style=&quot;font-family: Montserrat; color: rgb(51, 51, 51);&quot;&gt;&lt;font style=&quot;font-size: 12px;&quot;&gt;&lt;b&gt;&amp;nbsp;có định dạng&lt;/b&gt;&lt;/font&gt;&lt;/span&gt;&lt;/p&gt;&lt;/div&gt;&lt;/div&gt;&lt;/div&gt;&lt;/div&gt;" style="ellipse;shape=cloud;whiteSpace=wrap;html=1;" vertex="1" parent="WIyWlLk6GJQsqaUBKTNV-1">
          <mxGeometry x="80" y="60" width="200" height="130" as="geometry" />
        </mxCell>
        <mxCell id="jLacbx9vkayHQxbNvUvI-41" value="" style="endArrow=classic;html=1;rounded=0;entryX=0.8;entryY=0.8;entryDx=0;entryDy=0;entryPerimeter=0;exitX=0.25;exitY=0.25;exitDx=0;exitDy=0;exitPerimeter=0;" edge="1" parent="WIyWlLk6GJQsqaUBKTNV-1" source="jLacbx9vkayHQxbNvUvI-1" target="jLacbx9vkayHQxbNvUvI-40">
          <mxGeometry width="50" height="50" relative="1" as="geometry">
            <mxPoint x="380" y="360" as="sourcePoint" />
            <mxPoint x="430" y="310" as="targetPoint" />
            <Array as="points">
              <mxPoint x="330" y="190" />
            </Array>
          </mxGeometry>
        </mxCell>
        <mxCell id="jLacbx9vkayHQxbNvUvI-48" style="edgeStyle=orthogonalEdgeStyle;rounded=0;orthogonalLoop=1;jettySize=auto;html=1;" edge="1" parent="WIyWlLk6GJQsqaUBKTNV-1" source="jLacbx9vkayHQxbNvUvI-42" target="jLacbx9vkayHQxbNvUvI-47">
          <mxGeometry relative="1" as="geometry">
            <Array as="points">
              <mxPoint x="-90" y="55" />
              <mxPoint x="-90" y="55" />
            </Array>
          </mxGeometry>
        </mxCell>
        <mxCell id="jLacbx9vkayHQxbNvUvI-42" value="printf - xuất có định dạng&amp;nbsp;" style="rounded=0;whiteSpace=wrap;html=1;" vertex="1" parent="WIyWlLk6GJQsqaUBKTNV-1">
          <mxGeometry x="-30" y="30" width="100" height="50" as="geometry" />
        </mxCell>
        <mxCell id="jLacbx9vkayHQxbNvUvI-43" value="" style="endArrow=classic;html=1;rounded=0;entryX=1;entryY=0.5;entryDx=0;entryDy=0;exitX=0.25;exitY=0.25;exitDx=0;exitDy=0;exitPerimeter=0;" edge="1" parent="WIyWlLk6GJQsqaUBKTNV-1" source="jLacbx9vkayHQxbNvUvI-40" target="jLacbx9vkayHQxbNvUvI-42">
          <mxGeometry width="50" height="50" relative="1" as="geometry">
            <mxPoint x="90" y="350" as="sourcePoint" />
            <mxPoint x="140" y="300" as="targetPoint" />
            <Array as="points">
              <mxPoint x="110" y="60" />
            </Array>
          </mxGeometry>
        </mxCell>
        <mxCell id="jLacbx9vkayHQxbNvUvI-45" value="&lt;div style=&quot;caret-color: rgb(0, 0, 0); color: rgb(0, 0, 0); font-style: normal; font-variant-caps: normal; font-weight: normal; letter-spacing: normal; text-align: start; text-indent: 0px; text-transform: none; word-spacing: 0px; -webkit-text-stroke-width: 0px; text-decoration: none;&quot; title=&quot;Page 6&quot; class=&quot;page&quot;&gt;&lt;div style=&quot;background-color: rgb(255, 255, 255);&quot; class=&quot;section&quot;&gt;&lt;div class=&quot;layoutArea&quot;&gt;&lt;div class=&quot;column&quot;&gt;&lt;p&gt;&lt;font style=&quot;font-size: 12px;&quot; face=&quot;Montserrat&quot;&gt;dùng để hiển thị các dữ liệu&amp;nbsp;&lt;/font&gt;&lt;/p&gt;&lt;p&gt;&lt;font style=&quot;font-size: 11px;&quot; face=&quot;Montserrat&quot;&gt;có định dạng ra màn hình console - thiet bị&lt;/font&gt;&lt;/p&gt;&lt;p&gt;&lt;font face=&quot;Montserrat&quot;&gt;&lt;span style=&quot;font-size: 11px;&quot;&gt;cuất chuẩn&amp;nbsp;&lt;/span&gt;&lt;/font&gt;&lt;/p&gt;&lt;/div&gt;&lt;/div&gt;&lt;/div&gt;&lt;/div&gt;" style="ellipse;whiteSpace=wrap;html=1;" vertex="1" parent="WIyWlLk6GJQsqaUBKTNV-1">
          <mxGeometry x="-270" y="-140" width="220" height="130" as="geometry" />
        </mxCell>
        <mxCell id="jLacbx9vkayHQxbNvUvI-46" style="edgeStyle=orthogonalEdgeStyle;rounded=0;orthogonalLoop=1;jettySize=auto;html=1;entryX=1;entryY=0.454;entryDx=0;entryDy=0;entryPerimeter=0;" edge="1" parent="WIyWlLk6GJQsqaUBKTNV-1" source="jLacbx9vkayHQxbNvUvI-42" target="jLacbx9vkayHQxbNvUvI-45">
          <mxGeometry relative="1" as="geometry">
            <Array as="points">
              <mxPoint x="10" y="10" />
              <mxPoint x="-10" y="10" />
              <mxPoint x="-10" y="-81" />
            </Array>
          </mxGeometry>
        </mxCell>
        <mxCell id="jLacbx9vkayHQxbNvUvI-47" value="&lt;div style=&quot;caret-color: rgb(0, 0, 0); color: rgb(0, 0, 0); font-style: normal; font-variant-caps: normal; letter-spacing: normal; text-align: start; text-indent: 0px; text-transform: none; word-spacing: 0px; -webkit-text-stroke-width: 0px; text-decoration: none;&quot; title=&quot;Page 6&quot; class=&quot;page&quot;&gt;&lt;div style=&quot;background-color: rgb(255, 255, 255);&quot; class=&quot;section&quot;&gt;&lt;div class=&quot;layoutArea&quot;&gt;&lt;div class=&quot;column&quot;&gt;&lt;p&gt;&lt;span style=&quot;font-family: Montserrat;&quot;&gt;&lt;font style=&quot;font-size: 9px;&quot;&gt;&lt;b&gt;Số định dạng dữ liệu trong chuỗi định dạng phải khớp với danh sách đối số về số lượng, kiểu dữ liệu và thứ tự&lt;/b&gt;&lt;/font&gt;&lt;/span&gt;&lt;/p&gt;&lt;/div&gt;&lt;/div&gt;&lt;/div&gt;&lt;/div&gt;" style="ellipse;whiteSpace=wrap;html=1;" vertex="1" parent="WIyWlLk6GJQsqaUBKTNV-1">
          <mxGeometry x="-260" y="10" width="170" height="110" as="geometry" />
        </mxCell>
        <mxCell id="jLacbx9vkayHQxbNvUvI-57" style="edgeStyle=orthogonalEdgeStyle;rounded=0;orthogonalLoop=1;jettySize=auto;html=1;entryX=0.5;entryY=0;entryDx=0;entryDy=0;" edge="1" parent="WIyWlLk6GJQsqaUBKTNV-1" source="jLacbx9vkayHQxbNvUvI-49" target="jLacbx9vkayHQxbNvUvI-56">
          <mxGeometry relative="1" as="geometry" />
        </mxCell>
        <mxCell id="jLacbx9vkayHQxbNvUvI-49" value="SCANF-NHAP CO DINH DẠNG" style="rounded=0;whiteSpace=wrap;html=1;" vertex="1" parent="WIyWlLk6GJQsqaUBKTNV-1">
          <mxGeometry x="-26" y="230" width="120" height="60" as="geometry" />
        </mxCell>
        <mxCell id="jLacbx9vkayHQxbNvUvI-51" value="" style="endArrow=classic;html=1;rounded=0;entryX=0.75;entryY=0;entryDx=0;entryDy=0;" edge="1" parent="WIyWlLk6GJQsqaUBKTNV-1" source="jLacbx9vkayHQxbNvUvI-40" target="jLacbx9vkayHQxbNvUvI-49">
          <mxGeometry width="50" height="50" relative="1" as="geometry">
            <mxPoint x="90" y="280" as="sourcePoint" />
            <mxPoint x="140" y="230" as="targetPoint" />
          </mxGeometry>
        </mxCell>
        <mxCell id="jLacbx9vkayHQxbNvUvI-52" value="&lt;div style=&quot;caret-color: rgb(0, 0, 0); color: rgb(0, 0, 0); font-style: normal; font-variant-caps: normal; letter-spacing: normal; text-indent: 0px; text-transform: none; word-spacing: 0px; -webkit-text-stroke-width: 0px; text-decoration: none;&quot; title=&quot;Page 11&quot; class=&quot;page&quot;&gt;&lt;div style=&quot;background-color: rgb(255, 255, 255);&quot; class=&quot;section&quot;&gt;&lt;div class=&quot;layoutArea&quot;&gt;&lt;div class=&quot;column&quot;&gt;&lt;p&gt;&lt;span style=&quot;font-family: Montserrat;&quot;&gt;&lt;font style=&quot;font-size: 9px;&quot;&gt;&lt;b&gt;Được dùng để nhập&amp;nbsp;&lt;/b&gt;&lt;/font&gt;&lt;/span&gt;&lt;/p&gt;&lt;p&gt;&lt;span style=&quot;font-family: Montserrat;&quot;&gt;&lt;font style=&quot;font-size: 9px;&quot;&gt;&lt;b&gt;dữ liệu có định dạng từ bàn phím – thiết bị nhập chuẩn&lt;/b&gt;&lt;/font&gt;&lt;/span&gt;&lt;/p&gt;&lt;/div&gt;&lt;/div&gt;&lt;/div&gt;&lt;/div&gt;" style="ellipse;whiteSpace=wrap;html=1;align=center;" vertex="1" parent="WIyWlLk6GJQsqaUBKTNV-1">
          <mxGeometry x="-370" y="180" width="160" height="100" as="geometry" />
        </mxCell>
        <mxCell id="jLacbx9vkayHQxbNvUvI-53" value="" style="endArrow=classic;html=1;rounded=0;entryX=1.006;entryY=0.39;entryDx=0;entryDy=0;entryPerimeter=0;exitX=0;exitY=0.25;exitDx=0;exitDy=0;" edge="1" parent="WIyWlLk6GJQsqaUBKTNV-1" source="jLacbx9vkayHQxbNvUvI-49" target="jLacbx9vkayHQxbNvUvI-52">
          <mxGeometry width="50" height="50" relative="1" as="geometry">
            <mxPoint x="90" y="280" as="sourcePoint" />
            <mxPoint x="-40" y="230" as="targetPoint" />
            <Array as="points">
              <mxPoint x="-60" y="219" />
            </Array>
          </mxGeometry>
        </mxCell>
        <mxCell id="jLacbx9vkayHQxbNvUvI-54" value="&lt;div style=&quot;&quot; title=&quot;Page 11&quot; class=&quot;page&quot;&gt;&lt;div style=&quot;background-color: rgb(255, 255, 255);&quot; class=&quot;section&quot;&gt;&lt;div class=&quot;layoutArea&quot;&gt;&lt;div class=&quot;column&quot;&gt;&lt;p&gt;&lt;font style=&quot;font-size: 10px;&quot;&gt;&lt;b&gt;Các Arguments với kiểu dữ liệu cơ bản phải sử dụng ký tự &amp;amp; trước tên biến&lt;/b&gt;&lt;/font&gt;&lt;/p&gt;&lt;/div&gt;&lt;/div&gt;&lt;/div&gt;&lt;/div&gt;" style="ellipse;whiteSpace=wrap;html=1;align=center;" vertex="1" parent="WIyWlLk6GJQsqaUBKTNV-1">
          <mxGeometry x="-300" y="360" width="150" height="90" as="geometry" />
        </mxCell>
        <mxCell id="jLacbx9vkayHQxbNvUvI-55" value="" style="endArrow=classic;html=1;rounded=0;entryX=1;entryY=0;entryDx=0;entryDy=0;exitX=0;exitY=0.75;exitDx=0;exitDy=0;" edge="1" parent="WIyWlLk6GJQsqaUBKTNV-1" source="jLacbx9vkayHQxbNvUvI-49" target="jLacbx9vkayHQxbNvUvI-54">
          <mxGeometry width="50" height="50" relative="1" as="geometry">
            <mxPoint x="90" y="400" as="sourcePoint" />
            <mxPoint x="140" y="350" as="targetPoint" />
            <Array as="points">
              <mxPoint x="-60" y="310" />
            </Array>
          </mxGeometry>
        </mxCell>
        <mxCell id="jLacbx9vkayHQxbNvUvI-56" value="&lt;div style=&quot;&quot; title=&quot;Page 11&quot; class=&quot;page&quot;&gt;&lt;div style=&quot;background-color: rgb(255, 255, 255);&quot; class=&quot;section&quot;&gt;&lt;div class=&quot;layoutArea&quot;&gt;&lt;div class=&quot;column&quot;&gt;&lt;p&gt;&lt;font style=&quot;font-size: 11px;&quot;&gt;&lt;b&gt;Các bước nhập dữ liệu:&lt;/b&gt;&lt;/font&gt;&lt;/p&gt;&lt;/div&gt;&lt;/div&gt;&lt;/div&gt;&lt;/div&gt;" style="ellipse;whiteSpace=wrap;html=1;align=center;" vertex="1" parent="WIyWlLk6GJQsqaUBKTNV-1">
          <mxGeometry x="-26" y="370" width="120" height="80" as="geometry" />
        </mxCell>
        <mxCell id="jLacbx9vkayHQxbNvUvI-58" value="&lt;div style=&quot;caret-color: rgb(0, 0, 0); color: rgb(0, 0, 0); font-style: normal; font-variant-caps: normal; letter-spacing: normal; text-indent: 0px; text-transform: none; word-spacing: 0px; -webkit-text-stroke-width: 0px; text-decoration: none;&quot; title=&quot;Page 11&quot; class=&quot;page&quot;&gt;&lt;div style=&quot;background-color: rgb(255, 255, 255);&quot; class=&quot;section&quot;&gt;&lt;div class=&quot;layoutArea&quot;&gt;&lt;div class=&quot;column&quot;&gt;&lt;p&gt;&lt;span style=&quot;font-family: Montserrat;&quot;&gt;&lt;font style=&quot;font-size: 12px;&quot;&gt;&lt;b&gt;Các bước nhập dữ liệu:&lt;/b&gt;&lt;/font&gt;&lt;/span&gt;&lt;/p&gt;&lt;/div&gt;&lt;/div&gt;&lt;/div&gt;&lt;/div&gt;" style="shape=hexagon;perimeter=hexagonPerimeter2;whiteSpace=wrap;html=1;fixedSize=1;align=center;" vertex="1" parent="WIyWlLk6GJQsqaUBKTNV-1">
          <mxGeometry x="-210" y="570" width="120" height="80" as="geometry" />
        </mxCell>
        <mxCell id="jLacbx9vkayHQxbNvUvI-59" value="" style="endArrow=classic;html=1;rounded=0;entryX=0.625;entryY=0;entryDx=0;entryDy=0;exitX=0.133;exitY=0.938;exitDx=0;exitDy=0;exitPerimeter=0;" edge="1" parent="WIyWlLk6GJQsqaUBKTNV-1" source="jLacbx9vkayHQxbNvUvI-56" target="jLacbx9vkayHQxbNvUvI-58">
          <mxGeometry width="50" height="50" relative="1" as="geometry">
            <mxPoint x="90" y="520" as="sourcePoint" />
            <mxPoint x="140" y="470" as="targetPoint" />
            <Array as="points">
              <mxPoint x="-70" y="470" />
            </Array>
          </mxGeometry>
        </mxCell>
        <mxCell id="jLacbx9vkayHQxbNvUvI-60" value="&lt;div style=&quot;&quot; title=&quot;Page 11&quot; class=&quot;page&quot;&gt;&lt;div style=&quot;background-color: rgb(255, 255, 255);&quot; class=&quot;section&quot;&gt;&lt;div class=&quot;layoutArea&quot;&gt;&lt;div class=&quot;column&quot;&gt;&lt;ul&gt;&lt;li style=&quot;font-family: ArialMT; color: rgb(192, 0, 0);&quot;&gt;&lt;p style=&quot;&quot;&gt;&lt;font style=&quot;font-size: 12px;&quot;&gt;&lt;b&gt;Thông báo nhập dữ liệu (sử dụng printf)&lt;/b&gt;&lt;/font&gt;&lt;/p&gt;&lt;/li&gt;&lt;/ul&gt;&lt;/div&gt;&lt;/div&gt;&lt;/div&gt;&lt;/div&gt;" style="shape=hexagon;perimeter=hexagonPerimeter2;whiteSpace=wrap;html=1;fixedSize=1;align=left;" vertex="1" parent="WIyWlLk6GJQsqaUBKTNV-1">
          <mxGeometry x="-26" y="570" width="136" height="80" as="geometry" />
        </mxCell>
        <mxCell id="jLacbx9vkayHQxbNvUvI-61" style="edgeStyle=orthogonalEdgeStyle;rounded=0;orthogonalLoop=1;jettySize=auto;html=1;entryX=0.294;entryY=0;entryDx=0;entryDy=0;entryPerimeter=0;" edge="1" parent="WIyWlLk6GJQsqaUBKTNV-1" source="jLacbx9vkayHQxbNvUvI-56" target="jLacbx9vkayHQxbNvUvI-60">
          <mxGeometry relative="1" as="geometry" />
        </mxCell>
        <mxCell id="jLacbx9vkayHQxbNvUvI-62" value="&lt;div style=&quot;caret-color: rgb(0, 0, 0); color: rgb(0, 0, 0); font-style: normal; font-variant-caps: normal; letter-spacing: normal; text-indent: 0px; text-transform: none; word-spacing: 0px; -webkit-text-stroke-width: 0px; text-decoration: none;&quot; title=&quot;Page 11&quot; class=&quot;page&quot;&gt;&lt;div style=&quot;background-color: rgb(255, 255, 255);&quot; class=&quot;section&quot;&gt;&lt;div class=&quot;layoutArea&quot;&gt;&lt;div class=&quot;column&quot;&gt;&lt;ul style=&quot;list-style-type: disc;&quot;&gt;&lt;li style=&quot;font-family: ArialMT; color: rgb(192, 0, 0);&quot;&gt;&lt;p&gt;&lt;span style=&quot;font-family: Montserrat;&quot;&gt;&lt;font style=&quot;font-size: 12px;&quot;&gt;&lt;b&gt;Lấy giá trị nhập và gán giá trị cho biến (sử dụng scanf)&lt;/b&gt;&lt;/font&gt;&lt;/span&gt;&lt;/p&gt;&lt;/li&gt;&lt;/ul&gt;&lt;/div&gt;&lt;/div&gt;&lt;/div&gt;&lt;/div&gt;" style="shape=hexagon;perimeter=hexagonPerimeter2;whiteSpace=wrap;html=1;fixedSize=1;align=left;" vertex="1" parent="WIyWlLk6GJQsqaUBKTNV-1">
          <mxGeometry x="94" y="480" width="160" height="80" as="geometry" />
        </mxCell>
        <mxCell id="jLacbx9vkayHQxbNvUvI-63" value="" style="endArrow=classic;html=1;rounded=0;exitX=1;exitY=1;exitDx=0;exitDy=0;" edge="1" parent="WIyWlLk6GJQsqaUBKTNV-1" source="jLacbx9vkayHQxbNvUvI-56" target="jLacbx9vkayHQxbNvUvI-62">
          <mxGeometry width="50" height="50" relative="1" as="geometry">
            <mxPoint x="100" y="520" as="sourcePoint" />
            <mxPoint x="140" y="470" as="targetPoint" />
            <Array as="points">
              <mxPoint x="140" y="460" />
            </Array>
          </mxGeometry>
        </mxCell>
        <mxCell id="jLacbx9vkayHQxbNvUvI-66" value="NHẬP XUẤT KÍ TỰ" style="ellipse;shape=cloud;whiteSpace=wrap;html=1;" vertex="1" parent="WIyWlLk6GJQsqaUBKTNV-1">
          <mxGeometry x="370" y="500" width="190" height="110" as="geometry" />
        </mxCell>
        <mxCell id="jLacbx9vkayHQxbNvUvI-72" style="edgeStyle=orthogonalEdgeStyle;rounded=0;orthogonalLoop=1;jettySize=auto;html=1;entryX=0.5;entryY=0;entryDx=0;entryDy=0;" edge="1" parent="WIyWlLk6GJQsqaUBKTNV-1" source="jLacbx9vkayHQxbNvUvI-67" target="jLacbx9vkayHQxbNvUvI-71">
          <mxGeometry relative="1" as="geometry" />
        </mxCell>
        <mxCell id="jLacbx9vkayHQxbNvUvI-67" value="&lt;div style=&quot;caret-color: rgb(0, 0, 0); color: rgb(0, 0, 0); font-style: normal; font-variant-caps: normal; font-weight: normal; letter-spacing: normal; text-align: start; text-indent: 0px; text-transform: none; word-spacing: 0px; -webkit-text-stroke-width: 0px; text-decoration: none;&quot; title=&quot;Page 13&quot; class=&quot;page&quot;&gt;&lt;div style=&quot;background-color: rgb(255, 255, 255);&quot; class=&quot;section&quot;&gt;&lt;div class=&quot;layoutArea&quot;&gt;&lt;div class=&quot;column&quot;&gt;&lt;p&gt;&lt;span style=&quot;font-family: Montserrat; font-weight: 700; color: rgb(192, 0, 0);&quot;&gt;&lt;font style=&quot;font-size: 11px;&quot;&gt;Vùng đệm nhập xuất&lt;/font&gt;&lt;br&gt;&lt;/span&gt;&lt;/p&gt;&lt;/div&gt;&lt;/div&gt;&lt;/div&gt;&lt;/div&gt;" style="ellipse;whiteSpace=wrap;html=1;" vertex="1" parent="WIyWlLk6GJQsqaUBKTNV-1">
          <mxGeometry x="270" y="660" width="120" height="80" as="geometry" />
        </mxCell>
        <mxCell id="jLacbx9vkayHQxbNvUvI-68" value="" style="endArrow=classic;html=1;rounded=0;exitX=0.174;exitY=0.845;exitDx=0;exitDy=0;exitPerimeter=0;entryX=0.6;entryY=-0.037;entryDx=0;entryDy=0;entryPerimeter=0;" edge="1" parent="WIyWlLk6GJQsqaUBKTNV-1" source="jLacbx9vkayHQxbNvUvI-66" target="jLacbx9vkayHQxbNvUvI-67">
          <mxGeometry width="50" height="50" relative="1" as="geometry">
            <mxPoint x="390" y="720" as="sourcePoint" />
            <mxPoint x="440" y="670" as="targetPoint" />
          </mxGeometry>
        </mxCell>
        <mxCell id="jLacbx9vkayHQxbNvUvI-69" value="&lt;div style=&quot;caret-color: rgb(0, 0, 0); color: rgb(0, 0, 0); font-style: normal; font-variant-caps: normal; font-weight: normal; letter-spacing: normal; text-align: start; text-indent: 0px; text-transform: none; word-spacing: 0px; -webkit-text-stroke-width: 0px; text-decoration: none;&quot; title=&quot;Page 13&quot; class=&quot;page&quot;&gt;&lt;div style=&quot;background-color: rgb(255, 255, 255);&quot; class=&quot;section&quot;&gt;&lt;div class=&quot;layoutArea&quot;&gt;&lt;div class=&quot;column&quot;&gt;&lt;p&gt;&lt;span style=&quot;font-family: Montserrat;&quot;&gt;&lt;font style=&quot;font-size: 10px;&quot;&gt;Được sử dụng&amp;nbsp;&lt;/font&gt;&lt;/span&gt;&lt;/p&gt;&lt;p&gt;&lt;span style=&quot;font-family: Montserrat;&quot;&gt;&lt;font style=&quot;font-size: 10px;&quot;&gt;để đọc và in các ký tự ASCII&lt;/font&gt;&lt;/span&gt;&lt;/p&gt;&lt;/div&gt;&lt;/div&gt;&lt;/div&gt;&lt;/div&gt;" style="shape=hexagon;perimeter=hexagonPerimeter2;whiteSpace=wrap;html=1;fixedSize=1;" vertex="1" parent="WIyWlLk6GJQsqaUBKTNV-1">
          <mxGeometry x="94" y="800" width="124" height="80" as="geometry" />
        </mxCell>
        <mxCell id="jLacbx9vkayHQxbNvUvI-70" value="" style="endArrow=classic;html=1;rounded=0;exitX=0.017;exitY=0.688;exitDx=0;exitDy=0;exitPerimeter=0;entryX=0.71;entryY=0;entryDx=0;entryDy=0;entryPerimeter=0;" edge="1" parent="WIyWlLk6GJQsqaUBKTNV-1" source="jLacbx9vkayHQxbNvUvI-67" target="jLacbx9vkayHQxbNvUvI-69">
          <mxGeometry width="50" height="50" relative="1" as="geometry">
            <mxPoint x="390" y="720" as="sourcePoint" />
            <mxPoint x="440" y="670" as="targetPoint" />
            <Array as="points">
              <mxPoint x="210" y="720" />
            </Array>
          </mxGeometry>
        </mxCell>
        <mxCell id="jLacbx9vkayHQxbNvUvI-71" value="&lt;div style=&quot;caret-color: rgb(0, 0, 0); color: rgb(0, 0, 0); font-style: normal; font-variant-caps: normal; font-weight: normal; letter-spacing: normal; text-align: start; text-indent: 0px; text-transform: none; word-spacing: 0px; -webkit-text-stroke-width: 0px; text-decoration: none;&quot; title=&quot;Page 13&quot; class=&quot;page&quot;&gt;&lt;div style=&quot;background-color: rgb(255, 255, 255);&quot; class=&quot;section&quot;&gt;&lt;div class=&quot;layoutArea&quot;&gt;&lt;div class=&quot;column&quot;&gt;&lt;p&gt;&lt;span style=&quot;font-family: Montserrat;&quot;&gt;&lt;font style=&quot;font-size: 11px;&quot;&gt;Vùng đệm (buffer) là một không gian lưu trữ tạm thời trong bộ nhớ hoặc trên thẻ thiết bị điều khiển&lt;/font&gt;&lt;/span&gt;&lt;/p&gt;&lt;/div&gt;&lt;/div&gt;&lt;/div&gt;&lt;/div&gt;" style="shape=hexagon;perimeter=hexagonPerimeter2;whiteSpace=wrap;html=1;fixedSize=1;" vertex="1" parent="WIyWlLk6GJQsqaUBKTNV-1">
          <mxGeometry x="260" y="830" width="140" height="80" as="geometry" />
        </mxCell>
        <mxCell id="jLacbx9vkayHQxbNvUvI-73" value="&lt;div style=&quot;caret-color: rgb(0, 0, 0); color: rgb(0, 0, 0); font-style: normal; font-variant-caps: normal; font-weight: normal; letter-spacing: normal; text-align: start; text-indent: 0px; text-transform: none; word-spacing: 0px; -webkit-text-stroke-width: 0px; text-decoration: none;&quot; title=&quot;Page 14&quot; class=&quot;page&quot;&gt;&lt;div style=&quot;background-color: rgb(255, 255, 255);&quot; class=&quot;section&quot;&gt;&lt;div class=&quot;layoutArea&quot;&gt;&lt;div class=&quot;column&quot;&gt;&lt;p&gt;&lt;span style=&quot;font-family: Montserrat; font-weight: 700; color: rgb(192, 0, 0);&quot;&gt;&lt;font style=&quot;font-size: 10px;&quot;&gt;getchar(): đọc một ký tự từ bàn phím&lt;/font&gt;&lt;/span&gt;&lt;/p&gt;&lt;/div&gt;&lt;/div&gt;&lt;/div&gt;&lt;/div&gt;" style="ellipse;whiteSpace=wrap;html=1;" vertex="1" parent="WIyWlLk6GJQsqaUBKTNV-1">
          <mxGeometry x="470" y="680" width="130" height="90" as="geometry" />
        </mxCell>
        <mxCell id="jLacbx9vkayHQxbNvUvI-74" value="" style="endArrow=classic;html=1;rounded=0;exitX=0.55;exitY=0.95;exitDx=0;exitDy=0;exitPerimeter=0;" edge="1" parent="WIyWlLk6GJQsqaUBKTNV-1" source="jLacbx9vkayHQxbNvUvI-66" target="jLacbx9vkayHQxbNvUvI-73">
          <mxGeometry width="50" height="50" relative="1" as="geometry">
            <mxPoint x="390" y="720" as="sourcePoint" />
            <mxPoint x="440" y="670" as="targetPoint" />
            <Array as="points">
              <mxPoint x="500" y="640" />
            </Array>
          </mxGeometry>
        </mxCell>
        <mxCell id="jLacbx9vkayHQxbNvUvI-75" value="&lt;div style=&quot;text-align: start;&quot; title=&quot;Page 14&quot; class=&quot;page&quot;&gt;&lt;div style=&quot;background-color: rgb(255, 255, 255);&quot; class=&quot;section&quot;&gt;&lt;div class=&quot;layoutArea&quot;&gt;&lt;div class=&quot;column&quot;&gt;&lt;p&gt;putchar(): in một ký tự ra màn hình console&lt;/p&gt;&lt;/div&gt;&lt;/div&gt;&lt;/div&gt;&lt;/div&gt;" style="ellipse;whiteSpace=wrap;html=1;" vertex="1" parent="WIyWlLk6GJQsqaUBKTNV-1">
          <mxGeometry x="660" y="740" width="130" height="80" as="geometry" />
        </mxCell>
        <mxCell id="jLacbx9vkayHQxbNvUvI-76" value="" style="endArrow=classic;html=1;rounded=0;entryX=0.277;entryY=0.013;entryDx=0;entryDy=0;entryPerimeter=0;exitX=0.8;exitY=0.8;exitDx=0;exitDy=0;exitPerimeter=0;" edge="1" parent="WIyWlLk6GJQsqaUBKTNV-1" source="jLacbx9vkayHQxbNvUvI-66" target="jLacbx9vkayHQxbNvUvI-75">
          <mxGeometry width="50" height="50" relative="1" as="geometry">
            <mxPoint x="390" y="720" as="sourcePoint" />
            <mxPoint x="440" y="670" as="targetPoint" />
            <Array as="points">
              <mxPoint x="610" y="620" />
            </Array>
          </mxGeometry>
        </mxCell>
      </root>
    </mxGraphModel>
  </diagram>
</mxfile>
